<svg width="14" height="11" viewBox="0 0 14 11" fill="none" xmlns="http://www.w3.org/2000/svg">
<path d="M0 5.37783C0 5.07641 0.223987 4.82731 0.514594 4.78788L0.595384 4.78245L5.72511 4.78268C7.69075 4.78277 8.67313 2.40436 7.28037 1.01729C7.04736 0.785281 7.04655 0.408305 7.27856 0.175293C7.48948 -0.0365362 7.8202 -0.0564642 8.05366 0.115976L8.12056 0.17348L12.9233 4.95561C12.954 4.98619 12.9807 5.01929 13.0034 5.05424C13.0098 5.06476 13.0163 5.07553 13.0224 5.08651C13.0281 5.09592 13.0332 5.10569 13.0381 5.11557C13.0448 5.12995 13.0514 5.1448 13.0573 5.15996C13.0622 5.17164 13.0662 5.18301 13.0699 5.19446C13.0743 5.20867 13.0786 5.2238 13.0822 5.23917C13.085 5.2499 13.0871 5.26023 13.089 5.2706C13.0916 5.28602 13.0939 5.30198 13.0955 5.31814C13.0969 5.33045 13.0977 5.34266 13.0982 5.35488C13.0983 5.36229 13.0985 5.37004 13.0985 5.37783L13.0982 5.4009C13.0977 5.41258 13.0969 5.42426 13.0958 5.4359L13.0985 5.37783C13.0985 5.4154 13.095 5.45216 13.0883 5.4878C13.0868 5.49632 13.0849 5.50505 13.0829 5.51376C13.0787 5.53168 13.0738 5.54894 13.0682 5.56586C13.0654 5.57427 13.0622 5.58325 13.0587 5.59216C13.0518 5.61008 13.0442 5.62716 13.0359 5.64379C13.032 5.65161 13.0277 5.6598 13.0232 5.66791C13.0157 5.68113 13.0081 5.6937 13 5.70595C12.9942 5.71462 12.9879 5.72364 12.9813 5.73252L12.9761 5.73939C12.9601 5.76034 12.9427 5.7802 12.9241 5.79883L12.9234 5.79939L8.12059 10.5823C7.8876 10.8143 7.51062 10.8136 7.27859 10.5806C7.06766 10.3688 7.04913 10.0379 7.22255 9.80522L7.28034 9.73857C8.67276 8.35154 7.69054 5.97354 5.72516 5.97345L0.595384 5.97322C0.266563 5.97322 0 5.70665 0 5.37783Z" fill="#222222"/>
</svg>
