<svg width="25" height="25" viewBox="0 0 25 25" fill="none" xmlns="http://www.w3.org/2000/svg">
<path fill-rule="evenodd" clip-rule="evenodd" d="M11.5922 0C17.984 0 23.1831 5.19916 23.1831 11.591C23.1831 14.6066 22.0259 17.357 20.132 19.4213L23.8585 23.1399C24.2073 23.4887 24.2085 24.0529 23.8597 24.4016C23.6859 24.5778 23.4562 24.6647 23.2277 24.6647C23.0003 24.6647 22.7718 24.5778 22.5968 24.404L18.8254 20.6431C16.8414 22.2319 14.3259 23.1831 11.5922 23.1831C5.20035 23.1831 0 17.9828 0 11.591C0 5.19916 5.20035 0 11.5922 0ZM11.5922 1.78543C6.18471 1.78543 1.78542 6.18352 1.78542 11.591C1.78542 16.9984 6.18471 21.3977 11.5922 21.3977C16.9984 21.3977 21.3977 16.9984 21.3977 11.591C21.3977 6.18352 16.9984 1.78543 11.5922 1.78543Z" fill="black" fill-opacity="0.6"/>
</svg>
