<svg width="27" height="26" viewBox="0 0 27 26" fill="none" xmlns="http://www.w3.org/2000/svg">
<path d="M26.62 7.78298C26.5984 6.71745 26.3955 5.66339 26.02 4.66598C25.6894 3.81283 25.1845 3.03798 24.5376 2.39092C23.8907 1.74386 23.116 1.23879 22.263 0.90798C21.2658 0.533049 20.2121 0.330165 19.147 0.30798C17.776 0.24498 17.335 0.22998 13.847 0.22998C10.359 0.22998 9.92297 0.24498 8.55297 0.30498C7.48779 0.326759 6.43408 0.529655 5.43697 0.90498C4.57794 1.2266 3.79998 1.73285 3.15797 2.38798C2.50535 3.02951 1.99972 3.80502 1.67597 4.66098C1.30095 5.65852 1.09806 6.7125 1.07597 7.77798C1.01097 9.15298 0.995972 9.58998 0.995972 13.078C0.995972 16.566 1.01497 17.002 1.07597 18.372C1.09758 19.4375 1.30048 20.4916 1.67597 21.489C2.00661 22.3425 2.5117 23.1177 3.15896 23.765C3.80622 24.4123 4.58141 24.9173 5.43497 25.248C6.43252 25.623 7.4865 25.8259 8.55197 25.848C9.92197 25.908 10.359 25.923 13.847 25.923C17.335 25.923 17.771 25.908 19.142 25.848C20.2072 25.8263 21.2609 25.6234 22.258 25.248C23.1118 24.9178 23.8873 24.4129 24.5346 23.7656C25.1819 23.1183 25.6868 22.3428 26.017 21.489C26.3919 20.4914 26.5947 19.4374 26.617 18.372C26.677 17.002 26.692 16.565 26.692 13.077C26.692 9.58898 26.687 9.15298 26.627 7.78198L26.62 7.78298ZM24.306 18.272C24.2976 19.0862 24.1481 19.8929 23.864 20.656C23.6498 21.21 23.3223 21.7132 22.9022 22.1332C22.4822 22.5533 21.979 22.8808 21.425 23.095C20.6616 23.3782 19.8551 23.5274 19.041 23.536C17.686 23.596 17.28 23.611 13.852 23.611C10.424 23.611 10.013 23.596 8.66297 23.536C7.84777 23.5283 7.04009 23.3791 6.27597 23.095C5.71851 22.8902 5.21436 22.5624 4.80097 22.136C4.37564 21.7217 4.04803 21.2178 3.84197 20.661C3.55876 19.8976 3.40956 19.0911 3.40097 18.277C3.34097 16.922 3.32597 16.515 3.32597 13.088C3.32597 9.66098 3.34097 9.24898 3.40097 7.89898C3.40896 7.08479 3.55817 6.27815 3.84197 5.51498C4.04644 4.95585 4.37619 4.45095 4.80597 4.03898C5.22022 3.61386 5.72414 3.28657 6.28097 3.08098C7.04426 2.79749 7.85078 2.64795 8.66497 2.63898C10.02 2.57898 10.427 2.56398 13.854 2.56398C17.281 2.56398 17.693 2.57898 19.043 2.63898C19.8572 2.64735 20.6638 2.7969 21.427 3.08098C21.9844 3.2854 22.4886 3.61285 22.902 4.03898C23.3274 4.45352 23.6551 4.95777 23.861 5.51498C24.1445 6.27827 24.294 7.08479 24.303 7.89898C24.363 9.25398 24.378 9.65998 24.378 13.088C24.378 16.516 24.363 16.917 24.303 18.272H24.306Z" fill="black" fill-opacity="0.4"/>
<path d="M13.847 6.47797C12.5416 6.47797 11.2656 6.86505 10.1802 7.59027C9.09485 8.31548 8.24892 9.34626 7.74938 10.5523C7.24984 11.7582 7.11914 13.0853 7.3738 14.3656C7.62846 15.6458 8.25705 16.8218 9.18008 17.7449C10.1031 18.6679 11.2791 19.2965 12.5594 19.5511C13.8397 19.8058 15.1667 19.6751 16.3727 19.1756C17.5787 18.676 18.6095 17.8301 19.3347 16.7447C20.0599 15.6594 20.447 14.3833 20.447 13.078C20.447 11.3275 19.7516 9.6488 18.5139 8.41106C17.2761 7.17332 15.5974 6.47797 13.847 6.47797ZM13.847 17.358C13.0004 17.3574 12.173 17.1058 11.4694 16.635C10.7658 16.1643 10.2176 15.4955 9.89399 14.7132C9.57043 13.9309 9.48608 13.0702 9.65161 12.2399C9.81713 11.4097 10.2251 10.6472 10.8239 10.0488C11.4227 9.45037 12.1856 9.04295 13.0159 8.87801C13.8463 8.71307 14.7069 8.79802 15.4889 9.12213C16.271 9.44623 16.9394 9.99494 17.4097 10.6989C17.88 11.4028 18.131 12.2304 18.131 13.077C18.1307 14.2123 17.6796 15.301 16.8768 16.1038C16.074 16.9066 14.9853 17.3577 13.85 17.358H13.847Z" fill="black" fill-opacity="0.4"/>
<path d="M22.248 6.218C22.248 6.52278 22.1576 6.82072 21.9883 7.07414C21.8189 7.32755 21.5783 7.52507 21.2967 7.6417C21.0151 7.75833 20.7052 7.78885 20.4063 7.72939C20.1074 7.66993 19.8328 7.52317 19.6173 7.30765C19.4018 7.09214 19.255 6.81756 19.1956 6.51864C19.1361 6.21971 19.1666 5.90987 19.2833 5.62829C19.3999 5.34671 19.5974 5.10603 19.8508 4.93671C20.1042 4.76738 20.4022 4.677 20.707 4.677C21.1157 4.677 21.5076 4.83936 21.7966 5.12835C22.0856 5.41734 22.248 5.8093 22.248 6.218Z" fill="black" fill-opacity="0.4"/>
</svg>
