<svg width="25" height="24" viewBox="0 0 25 24" fill="none" xmlns="http://www.w3.org/2000/svg">
<path d="M24.567 23.573H24.573V14.926C24.573 10.697 23.662 7.43896 18.718 7.43896C17.7896 7.40449 16.8693 7.62263 16.0551 8.07013C15.2409 8.51763 14.5635 9.1777 14.095 9.97996H14.026V7.83396H9.34V23.572H14.22V15.779C14.22 13.727 14.609 11.743 17.15 11.743C19.65 11.743 19.691 14.085 19.691 15.911V23.573H24.567Z" fill="black" fill-opacity="0.4"/>
<path d="M1.38901 7.83496H6.27901V23.573H1.38901V7.83496Z" fill="black" fill-opacity="0.4"/>
<path d="M3.83099 -2.67065e-05C3.26736 -0.00279543 2.71562 0.161974 2.24581 0.473365C1.776 0.784755 1.40931 1.22872 1.19229 1.74891C0.975269 2.26909 0.91771 2.84202 1.02692 3.39498C1.13613 3.94794 1.40718 4.45597 1.80566 4.8546C2.20414 5.25322 2.71208 5.52445 3.265 5.63385C3.81791 5.74325 4.39087 5.6859 4.91113 5.46906C5.43139 5.25223 5.87549 4.88569 6.18704 4.41599C6.4986 3.94629 6.66356 3.3946 6.66099 2.83097C6.66073 2.0804 6.36252 1.36063 5.83187 0.8298C5.30123 0.298971 4.58157 0.000503313 3.83099 -2.67065e-05Z" fill="black" fill-opacity="0.4"/>
</svg>
