<svg width="24" height="20" viewBox="0 0 24 20" fill="none" xmlns="http://www.w3.org/2000/svg">
<path d="M23.939 2.95095C23.0521 3.33767 22.1141 3.59465 21.154 3.71395C22.1656 3.11379 22.922 2.16345 23.28 1.04295C22.3328 1.60478 21.2965 2.00049 20.216 2.21295C19.5537 1.50533 18.694 1.0132 17.7485 0.800494C16.8029 0.587786 15.8153 0.664325 14.9138 1.02017C14.0123 1.37601 13.2387 1.99472 12.6934 2.79592C12.1481 3.59712 11.8563 4.54378 11.856 5.51295C11.8523 5.88264 11.8899 6.25158 11.968 6.61295C10.0459 6.51936 8.1652 6.02128 6.44875 5.15126C4.73231 4.28123 3.21875 3.05884 2.00697 1.56395C1.38501 2.62711 1.19236 3.88759 1.46835 5.08799C1.74433 6.28839 2.46814 7.33817 3.49197 8.02295C2.72671 8.00091 1.97798 7.79513 1.30897 7.42295V7.48095C1.31045 8.59679 1.69625 9.67807 2.40146 10.5428C3.10667 11.4076 4.08823 12.003 5.18097 12.2289C4.76755 12.3379 4.34148 12.3913 3.91397 12.3879C3.60687 12.3932 3.3001 12.3654 2.99897 12.3049C3.31144 13.264 3.91347 14.1026 4.7222 14.7054C5.53094 15.3082 6.50662 15.6455 7.51497 15.6709C5.8043 17.0087 3.69457 17.7343 1.52297 17.7319C1.13631 17.735 0.749849 17.7133 0.365967 17.6669C2.57582 19.0911 5.15098 19.8445 7.77997 19.8359C9.58949 19.8484 11.3835 19.5013 13.0577 18.8146C14.7319 18.128 16.253 17.1155 17.5327 15.8361C18.8123 14.5566 19.825 13.0356 20.5119 11.3615C21.1988 9.68739 21.5462 7.89347 21.534 6.08395C21.534 5.86995 21.527 5.66395 21.516 5.45895C22.4694 4.77718 23.2905 3.92728 23.939 2.95095Z" fill="black" fill-opacity="0.4"/>
</svg>
