<svg width="27" height="19" viewBox="0 0 27 19" fill="none" xmlns="http://www.w3.org/2000/svg">
<path d="M25.648 2.96095C25.5008 2.41747 25.2139 1.92199 24.8159 1.52375C24.4178 1.12552 23.9225 0.838404 23.379 0.690954C21.364 0.139954 13.304 0.139954 13.304 0.139954C13.304 0.139954 5.24404 0.139954 3.22904 0.669954C2.68605 0.82507 2.19211 1.1173 1.79473 1.51853C1.39736 1.91976 1.10991 2.4165 0.960041 2.96095C0.594606 5.00477 0.417199 7.07777 0.430042 9.15395C0.416495 11.2302 0.593907 13.3032 0.960041 15.347C1.10734 15.8906 1.39438 16.3861 1.79263 16.7844C2.19087 17.1826 2.68644 17.4697 3.23004 17.617C5.26604 18.168 13.305 18.168 13.305 18.168C13.305 18.168 21.365 18.168 23.38 17.638C23.9235 17.4907 24.419 17.2038 24.8172 16.8058C25.2155 16.4077 25.5026 15.9124 25.65 15.369C26.0154 13.3251 26.1928 11.2521 26.18 9.17595C26.2045 7.09203 26.027 5.01064 25.65 2.96095H25.648ZM10.74 13.014V5.29395L17.44 9.15395L10.74 13.014Z" fill="black" fill-opacity="0.4"/>
</svg>
